<?xml version="1.0" encoding="utf-8"?>
<svg id="svg2" viewBox="0 0 500 670" xmlns="http://www.w3.org/2000/svg">
  <desc>Source: openclipart.org/detail/209545</desc>
  <g transform="matrix(0.051835, 0, 0, -0.057422, -28.697906, 722.047119)" fill="#000000" stroke="none" style="">
    <path d="M3175 8990 c-108 -8 -188 -30 -276 -76 -138 -73 -247 -184 -314 -321 -75 -154 -69 69 -72 -2632 -3 -1952 -1 -2426 9 -2433 7 -4 1096 -8 2420 -8 2637 0 2479 -4 2630 60 188 78 327 230 406 443 l27 72 3 2439 c2 1814 -1 2442 -9 2452 -10 12 -381 14 -2373 12 -1298 0 -2401 -4 -2451 -8z m3563 -942 c9 -9 12 -359 12 -1514 0 -1415 -1 -1503 -17 -1523 -15 -18 -45 -26 -173 -46 -85 -13 -344 -58 -575 -99 -231 -41 -564 -100 -740 -131 -176 -30 -405 -71 -510 -91 -104 -19 -226 -42 -270 -50 -44 -8 -100 -21 -125 -29 -25 -8 -85 -21 -135 -30 -49 -9 -139 -25 -200 -37 -137 -25 -225 -32 -245 -19 -13 9 -15 174 -18 1363 -2 744 -1 1426 3 1515 l7 162 47 15 c65 21 200 49 471 96 368 65 1343 243 1810 330 234 44 448 84 475 89 74 13 169 13 183 -1z" style="fill: rgb(179, 179, 179);"/>
  </g>
  <g transform="matrix(0.081441, -0.000778, -0.000767, -0.080335, -5019.555664, -5901.064453)" fill="#000000" stroke="none" style="transform-origin: 5260.16px 6259.31px;">
    <path d="M3175 8990 c-108 -8 -188 -30 -276 -76 -138 -73 -247 -184 -314 -321 -75 -154 -69 69 -72 -2632 -3 -1952 -1 -2426 9 -2433 7 -4 1096 -8 2420 -8 2637 0 2479 -4 2630 60 188 78 327 230 406 443 l27 72 3 2439 c2 1814 -1 2442 -9 2452 -10 12 -381 14 -2373 12 -1298 0 -2401 -4 -2451 -8z m3563 -942 c9 -9 12 -359 12 -1514 0 -1415 -1 -1503 -17 -1523 -15 -18 -45 -26 -173 -46 -85 -13 -344 -58 -575 -99 -231 -41 -564 -100 -740 -131 -176 -30 -405 -71 -510 -91 -104 -19 -226 -42 -270 -50 -44 -8 -100 -21 -125 -29 -25 -8 -85 -21 -135 -30 -49 -9 -139 -25 -200 -37 -137 -25 -225 -32 -245 -19 -13 9 -15 174 -18 1363 -2 744 -1 1426 3 1515 l7 162 47 15 c65 21 200 49 471 96 368 65 1343 243 1810 330 234 44 448 84 475 89 74 13 169 13 183 -1z" style="fill: rgb(27, 93, 173);"/>
  </g>
</svg>